<svg xmlns="http://www.w3.org/2000/svg" viewBox="0 0 220 220" role="img" aria-label="Tolbert Innovation Hub logo mark">
  <defs>
    <linearGradient id="g" x1="0" y1="0" x2="1" y2="1">
      <stop offset="0%" stop-color="#0a3fb0"/>
      <stop offset="100%" stop-color="#0f7a44"/>
    </linearGradient>
  </defs>
  <circle cx="110" cy="110" r="106" fill="#ffffff" stroke="#041a78" stroke-width="8"/>
  <circle cx="110" cy="110" r="88" fill="#ffffff" stroke="#e31b23" stroke-width="6"/>
  <circle cx="110" cy="110" r="74" fill="url(#g)" opacity="0.12"/>
  <path d="M110 58c-20 2-37 14-44 32 11-6 24-7 36-4 7 2 13 2 20 1 7-1 14-1 20 1 11 3 23 2 34-4-8-18-24-30-45-32-3 4-7 6-11 6s-8-2-10-6z" fill="#0b5a32" opacity="0.9"/>
  <path d="M66 118c8-6 16-9 24-9 9 0 16 3 24 9 8 6 16 9 24 9 9 0 17-3 25-9-5 21-24 37-49 37-24 0-44-16-48-37z" fill="#0f7a44"/>
  <text x="110" y="29" text-anchor="middle" font-family="Inter, Arial, sans-serif" font-size="16" font-weight="800" fill="#0a3fb0">TOLBERT</text>
  <text x="110" y="194" text-anchor="middle" font-family="Inter, Arial, sans-serif" font-size="14" font-weight="800" fill="#0a3fb0">INNOVATION HUB</text>
</svg>
